<svg aria-roledescription="er" viewBox="0 0 484.23291015625 627" style="max-width: 484.233px; background-color: white;" xmlns:xlink="http://www.w3.org/1999/xlink" xmlns="http://www.w3.org/2000/svg" width="100%" id="mermaid-0"><style>#mermaid-0{font-family:"trebuchet ms",verdana,arial,sans-serif;font-size:16px;fill:#000000;}#mermaid-0 .error-icon{fill:#552222;}#mermaid-0 .error-text{fill:#552222;stroke:#552222;}#mermaid-0 .edge-thickness-normal{stroke-width:2px;}#mermaid-0 .edge-thickness-thick{stroke-width:3.5px;}#mermaid-0 .edge-pattern-solid{stroke-dasharray:0;}#mermaid-0 .edge-pattern-dashed{stroke-dasharray:3;}#mermaid-0 .edge-pattern-dotted{stroke-dasharray:2;}#mermaid-0 .marker{fill:#000000;stroke:#000000;}#mermaid-0 .marker.cross{stroke:#000000;}#mermaid-0 svg{font-family:"trebuchet ms",verdana,arial,sans-serif;font-size:16px;}#mermaid-0 .entityBox{fill:#cde498;stroke:#13540c;}#mermaid-0 .attributeBoxOdd{fill:#ffffff;stroke:#13540c;}#mermaid-0 .attributeBoxEven{fill:#f2f2f2;stroke:#13540c;}#mermaid-0 .relationshipLabelBox{fill:hsl(78.1578947368, 58.4615384615%, 84.5098039216%);opacity:0.7;background-color:hsl(78.1578947368, 58.4615384615%, 84.5098039216%);}#mermaid-0 .relationshipLabelBox rect{opacity:0.5;}#mermaid-0 .relationshipLine{stroke:#000000;}#mermaid-0 .entityTitleText{text-anchor:middle;font-size:18px;fill:#000000;}#mermaid-0 :root{--mermaid-font-family:"trebuchet ms",verdana,arial,sans-serif;}</style><g/><defs><marker orient="auto" markerHeight="18" markerWidth="18" refY="9" refX="0" id="ONLY_ONE_START"><path d="M9,0 L9,18 M15,0 L15,18" fill="none" stroke="gray"/></marker></defs><defs><marker orient="auto" markerHeight="18" markerWidth="18" refY="9" refX="18" id="ONLY_ONE_END"><path d="M3,0 L3,18 M9,0 L9,18" fill="none" stroke="gray"/></marker></defs><defs><marker orient="auto" markerHeight="18" markerWidth="30" refY="9" refX="0" id="ZERO_OR_ONE_START"><circle r="6" cy="9" cx="21" fill="white" stroke="gray"/><path d="M9,0 L9,18" fill="none" stroke="gray"/></marker></defs><defs><marker orient="auto" markerHeight="18" markerWidth="30" refY="9" refX="30" id="ZERO_OR_ONE_END"><circle r="6" cy="9" cx="9" fill="white" stroke="gray"/><path d="M21,0 L21,18" fill="none" stroke="gray"/></marker></defs><defs><marker orient="auto" markerHeight="36" markerWidth="45" refY="18" refX="18" id="ONE_OR_MORE_START"><path d="M0,18 Q 18,0 36,18 Q 18,36 0,18 M42,9 L42,27" fill="none" stroke="gray"/></marker></defs><defs><marker orient="auto" markerHeight="36" markerWidth="45" refY="18" refX="27" id="ONE_OR_MORE_END"><path d="M3,9 L3,27 M9,18 Q27,0 45,18 Q27,36 9,18" fill="none" stroke="gray"/></marker></defs><defs><marker orient="auto" markerHeight="36" markerWidth="57" refY="18" refX="18" id="ZERO_OR_MORE_START"><circle r="6" cy="18" cx="48" fill="white" stroke="gray"/><path d="M0,18 Q18,0 36,18 Q18,36 0,18" fill="none" stroke="gray"/></marker></defs><defs><marker orient="auto" markerHeight="36" markerWidth="57" refY="18" refX="39" id="ZERO_OR_MORE_END"><circle r="6" cy="18" cx="9" fill="white" stroke="gray"/><path d="M21,18 Q39,0 57,18 Q39,36 21,18" fill="none" stroke="gray"/></marker></defs><path style="stroke: gray; fill: none;" marker-start="url(#ZERO_OR_MORE_START)" marker-end="url(#ONLY_ONE_END)" d="M131.3671875,315L131.3671875,323.3333333333333C131.3671875,331.6666666666667,131.3671875,348.3333333333333,131.3671875,365C131.3671875,381.6666666666667,131.3671875,398.3333333333333,131.3671875,406.6666666666667L131.3671875,415" class="er relationshipLine"/><path style="stroke: gray; fill: none;" marker-start="url(#ZERO_OR_MORE_START)" marker-end="url(#ONLY_ONE_END)" d="M81.3671875,107L81.3671875,115.33333333333333C81.3671875,123.66666666666667,81.3671875,140.33333333333334,85.37359775641026,157C89.38000801282051,173.66666666666666,97.39282852564104,190.33333333333334,101.39923878205128,198.66666666666666L105.40564903846155,207" class="er relationshipLine"/><path style="stroke: gray; fill: none;" marker-start="url(#ZERO_OR_MORE_START)" marker-end="url(#ONLY_ONE_END)" d="M377.8449119119083,96.5L383.2370687746534,106.58333333333333C388.6292256373985,116.66666666666667,399.4135393628887,136.83333333333334,404.80569622563377,158.75C410.1978530883789,180.66666666666666,410.1978530883789,204.33333333333334,410.1978530883789,216.16666666666666L410.1978530883789,228" class="er relationshipLine"/><path style="stroke: gray; fill: none;" marker-start="url(#ZERO_OR_MORE_START)" marker-end="url(#ONLY_ONE_END)" d="M316.7341806748334,96.5L303.45361410402785,106.58333333333333C290.17304753322225,116.66666666666667,263.61191439161115,136.83333333333334,241.86311114211966,155.25C220.1143078926282,173.66666666666666,203.17783453525644,190.33333333333334,194.70959785657053,198.66666666666666L186.2413611778846,207" class="er relationshipLine"/><g transform="translate(39.10810852050781,415 )" id="entity-users-37ded7ff-e754-4035-a674-c6e597b6cc22"><rect height="192" width="184.51815795898438" y="0" x="0" class="er entityBox"/><text style="dominant-baseline: middle; text-anchor: middle; font-size: 12px;" transform="translate(92.25907897949219,12)" y="0" x="0" id="text-entity-users-37ded7ff-e754-4035-a674-c6e597b6cc22" class="er entityLabel">users</text><rect height="21" width="54.113128662109375" y="24" x="0" class="er attributeBoxOdd"/><text style="dominant-baseline: middle; font-size: 10.2px;" transform="translate(5,34.5)" y="0" x="0" id="text-entity-users-37ded7ff-e754-4035-a674-c6e597b6cc22-attr-1-type" class="er entityLabel">String</text><rect height="21" width="61.156829833984375" y="24" x="54.113128662109375" class="er attributeBoxOdd"/><text style="dominant-baseline: middle; font-size: 10.2px;" transform="translate(59.113128662109375,34.5)" y="0" x="0" id="text-entity-users-37ded7ff-e754-4035-a674-c6e597b6cc22-attr-1-name" class="er entityLabel">id</text><rect height="21" width="23.79498291015625" y="24" x="115.26995849609375" class="er attributeBoxOdd"/><text style="dominant-baseline: middle; font-size: 10.2px;" transform="translate(120.26995849609375,34.5)" y="0" x="0" id="text-entity-users-37ded7ff-e754-4035-a674-c6e597b6cc22-attr-1-key" class="er entityLabel">PK</text><rect height="21" width="45.453216552734375" y="24" x="139.06494140625" class="er attributeBoxOdd"/><text style="dominant-baseline: middle; font-size: 10.2px;" transform="translate(144.06494140625,34.5)" y="0" x="0" id="text-entity-users-37ded7ff-e754-4035-a674-c6e597b6cc22-attr-1-comment" class="er entityLabel"/><rect height="21" width="54.113128662109375" y="45" x="0" class="er attributeBoxEven"/><text style="dominant-baseline: middle; font-size: 10.2px;" transform="translate(5,55.5)" y="0" x="0" id="text-entity-users-37ded7ff-e754-4035-a674-c6e597b6cc22-attr-2-type" class="er entityLabel">String</text><rect height="21" width="61.156829833984375" y="45" x="54.113128662109375" class="er attributeBoxEven"/><text style="dominant-baseline: middle; font-size: 10.2px;" transform="translate(59.113128662109375,55.5)" y="0" x="0" id="text-entity-users-37ded7ff-e754-4035-a674-c6e597b6cc22-attr-2-name" class="er entityLabel">name</text><rect height="21" width="23.79498291015625" y="45" x="115.26995849609375" class="er attributeBoxEven"/><text style="dominant-baseline: middle; font-size: 10.2px;" transform="translate(120.26995849609375,55.5)" y="0" x="0" id="text-entity-users-37ded7ff-e754-4035-a674-c6e597b6cc22-attr-2-key" class="er entityLabel"/><rect height="21" width="45.453216552734375" y="45" x="139.06494140625" class="er attributeBoxEven"/><text style="dominant-baseline: middle; font-size: 10.2px;" transform="translate(144.06494140625,55.5)" y="0" x="0" id="text-entity-users-37ded7ff-e754-4035-a674-c6e597b6cc22-attr-2-comment" class="er entityLabel"/><rect height="21" width="54.113128662109375" y="66" x="0" class="er attributeBoxOdd"/><text style="dominant-baseline: middle; font-size: 10.2px;" transform="translate(5,76.5)" y="0" x="0" id="text-entity-users-37ded7ff-e754-4035-a674-c6e597b6cc22-attr-3-type" class="er entityLabel">String</text><rect height="21" width="61.156829833984375" y="66" x="54.113128662109375" class="er attributeBoxOdd"/><text style="dominant-baseline: middle; font-size: 10.2px;" transform="translate(59.113128662109375,76.5)" y="0" x="0" id="text-entity-users-37ded7ff-e754-4035-a674-c6e597b6cc22-attr-3-name" class="er entityLabel">email</text><rect height="21" width="23.79498291015625" y="66" x="115.26995849609375" class="er attributeBoxOdd"/><text style="dominant-baseline: middle; font-size: 10.2px;" transform="translate(120.26995849609375,76.5)" y="0" x="0" id="text-entity-users-37ded7ff-e754-4035-a674-c6e597b6cc22-attr-3-key" class="er entityLabel"/><rect height="21" width="45.453216552734375" y="66" x="139.06494140625" class="er attributeBoxOdd"/><text style="dominant-baseline: middle; font-size: 10.2px;" transform="translate(144.06494140625,76.5)" y="0" x="0" id="text-entity-users-37ded7ff-e754-4035-a674-c6e597b6cc22-attr-3-comment" class="er entityLabel"/><rect height="21" width="54.113128662109375" y="87" x="0" class="er attributeBoxEven"/><text style="dominant-baseline: middle; font-size: 10.2px;" transform="translate(5,97.5)" y="0" x="0" id="text-entity-users-37ded7ff-e754-4035-a674-c6e597b6cc22-attr-4-type" class="er entityLabel">String</text><rect height="21" width="61.156829833984375" y="87" x="54.113128662109375" class="er attributeBoxEven"/><text style="dominant-baseline: middle; font-size: 10.2px;" transform="translate(59.113128662109375,97.5)" y="0" x="0" id="text-entity-users-37ded7ff-e754-4035-a674-c6e597b6cc22-attr-4-name" class="er entityLabel">password</text><rect height="21" width="23.79498291015625" y="87" x="115.26995849609375" class="er attributeBoxEven"/><text style="dominant-baseline: middle; font-size: 10.2px;" transform="translate(120.26995849609375,97.5)" y="0" x="0" id="text-entity-users-37ded7ff-e754-4035-a674-c6e597b6cc22-attr-4-key" class="er entityLabel"/><rect height="21" width="45.453216552734375" y="87" x="139.06494140625" class="er attributeBoxEven"/><text style="dominant-baseline: middle; font-size: 10.2px;" transform="translate(144.06494140625,97.5)" y="0" x="0" id="text-entity-users-37ded7ff-e754-4035-a674-c6e597b6cc22-attr-4-comment" class="er entityLabel">nullable</text><rect height="21" width="54.113128662109375" y="108" x="0" class="er attributeBoxOdd"/><text style="dominant-baseline: middle; font-size: 10.2px;" transform="translate(5,118.5)" y="0" x="0" id="text-entity-users-37ded7ff-e754-4035-a674-c6e597b6cc22-attr-5-type" class="er entityLabel">String</text><rect height="21" width="61.156829833984375" y="108" x="54.113128662109375" class="er attributeBoxOdd"/><text style="dominant-baseline: middle; font-size: 10.2px;" transform="translate(59.113128662109375,118.5)" y="0" x="0" id="text-entity-users-37ded7ff-e754-4035-a674-c6e597b6cc22-attr-5-name" class="er entityLabel">birthday</text><rect height="21" width="23.79498291015625" y="108" x="115.26995849609375" class="er attributeBoxOdd"/><text style="dominant-baseline: middle; font-size: 10.2px;" transform="translate(120.26995849609375,118.5)" y="0" x="0" id="text-entity-users-37ded7ff-e754-4035-a674-c6e597b6cc22-attr-5-key" class="er entityLabel"/><rect height="21" width="45.453216552734375" y="108" x="139.06494140625" class="er attributeBoxOdd"/><text style="dominant-baseline: middle; font-size: 10.2px;" transform="translate(144.06494140625,118.5)" y="0" x="0" id="text-entity-users-37ded7ff-e754-4035-a674-c6e597b6cc22-attr-5-comment" class="er entityLabel">nullable</text><rect height="21" width="54.113128662109375" y="129" x="0" class="er attributeBoxEven"/><text style="dominant-baseline: middle; font-size: 10.2px;" transform="translate(5,139.5)" y="0" x="0" id="text-entity-users-37ded7ff-e754-4035-a674-c6e597b6cc22-attr-6-type" class="er entityLabel">Int</text><rect height="21" width="61.156829833984375" y="129" x="54.113128662109375" class="er attributeBoxEven"/><text style="dominant-baseline: middle; font-size: 10.2px;" transform="translate(59.113128662109375,139.5)" y="0" x="0" id="text-entity-users-37ded7ff-e754-4035-a674-c6e597b6cc22-attr-6-name" class="er entityLabel">gender</text><rect height="21" width="23.79498291015625" y="129" x="115.26995849609375" class="er attributeBoxEven"/><text style="dominant-baseline: middle; font-size: 10.2px;" transform="translate(120.26995849609375,139.5)" y="0" x="0" id="text-entity-users-37ded7ff-e754-4035-a674-c6e597b6cc22-attr-6-key" class="er entityLabel"/><rect height="21" width="45.453216552734375" y="129" x="139.06494140625" class="er attributeBoxEven"/><text style="dominant-baseline: middle; font-size: 10.2px;" transform="translate(144.06494140625,139.5)" y="0" x="0" id="text-entity-users-37ded7ff-e754-4035-a674-c6e597b6cc22-attr-6-comment" class="er entityLabel"/><rect height="21" width="54.113128662109375" y="150" x="0" class="er attributeBoxOdd"/><text style="dominant-baseline: middle; font-size: 10.2px;" transform="translate(5,160.5)" y="0" x="0" id="text-entity-users-37ded7ff-e754-4035-a674-c6e597b6cc22-attr-7-type" class="er entityLabel">DateTime</text><rect height="21" width="61.156829833984375" y="150" x="54.113128662109375" class="er attributeBoxOdd"/><text style="dominant-baseline: middle; font-size: 10.2px;" transform="translate(59.113128662109375,160.5)" y="0" x="0" id="text-entity-users-37ded7ff-e754-4035-a674-c6e597b6cc22-attr-7-name" class="er entityLabel">created_at</text><rect height="21" width="23.79498291015625" y="150" x="115.26995849609375" class="er attributeBoxOdd"/><text style="dominant-baseline: middle; font-size: 10.2px;" transform="translate(120.26995849609375,160.5)" y="0" x="0" id="text-entity-users-37ded7ff-e754-4035-a674-c6e597b6cc22-attr-7-key" class="er entityLabel"/><rect height="21" width="45.453216552734375" y="150" x="139.06494140625" class="er attributeBoxOdd"/><text style="dominant-baseline: middle; font-size: 10.2px;" transform="translate(144.06494140625,160.5)" y="0" x="0" id="text-entity-users-37ded7ff-e754-4035-a674-c6e597b6cc22-attr-7-comment" class="er entityLabel"/><rect height="21" width="54.113128662109375" y="171" x="0" class="er attributeBoxEven"/><text style="dominant-baseline: middle; font-size: 10.2px;" transform="translate(5,181.5)" y="0" x="0" id="text-entity-users-37ded7ff-e754-4035-a674-c6e597b6cc22-attr-8-type" class="er entityLabel">DateTime</text><rect height="21" width="61.156829833984375" y="171" x="54.113128662109375" class="er attributeBoxEven"/><text style="dominant-baseline: middle; font-size: 10.2px;" transform="translate(59.113128662109375,181.5)" y="0" x="0" id="text-entity-users-37ded7ff-e754-4035-a674-c6e597b6cc22-attr-8-name" class="er entityLabel">updated_at</text><rect height="21" width="23.79498291015625" y="171" x="115.26995849609375" class="er attributeBoxEven"/><text style="dominant-baseline: middle; font-size: 10.2px;" transform="translate(120.26995849609375,181.5)" y="0" x="0" id="text-entity-users-37ded7ff-e754-4035-a674-c6e597b6cc22-attr-8-key" class="er entityLabel"/><rect height="21" width="45.453216552734375" y="171" x="139.06494140625" class="er attributeBoxEven"/><text style="dominant-baseline: middle; font-size: 10.2px;" transform="translate(144.06494140625,181.5)" y="0" x="0" id="text-entity-users-37ded7ff-e754-4035-a674-c6e597b6cc22-attr-8-comment" class="er entityLabel">nullable</text></g><g transform="translate(39.10810852050781,207 )" id="entity-habits-10f05ac3-357c-4a3e-bd56-684adee88a67"><rect height="108" width="184.51815795898438" y="0" x="0" class="er entityBox"/><text style="dominant-baseline: middle; text-anchor: middle; font-size: 12px;" transform="translate(92.25907897949219,12)" y="0" x="0" id="text-entity-habits-10f05ac3-357c-4a3e-bd56-684adee88a67" class="er entityLabel">habits</text><rect height="21" width="54.113128662109375" y="24" x="0" class="er attributeBoxOdd"/><text style="dominant-baseline: middle; font-size: 10.2px;" transform="translate(5,34.5)" y="0" x="0" id="text-entity-habits-10f05ac3-357c-4a3e-bd56-684adee88a67-attr-1-type" class="er entityLabel">String</text><rect height="21" width="61.156829833984375" y="24" x="54.113128662109375" class="er attributeBoxOdd"/><text style="dominant-baseline: middle; font-size: 10.2px;" transform="translate(59.113128662109375,34.5)" y="0" x="0" id="text-entity-habits-10f05ac3-357c-4a3e-bd56-684adee88a67-attr-1-name" class="er entityLabel">id</text><rect height="21" width="23.79498291015625" y="24" x="115.26995849609375" class="er attributeBoxOdd"/><text style="dominant-baseline: middle; font-size: 10.2px;" transform="translate(120.26995849609375,34.5)" y="0" x="0" id="text-entity-habits-10f05ac3-357c-4a3e-bd56-684adee88a67-attr-1-key" class="er entityLabel">PK</text><rect height="21" width="45.453216552734375" y="24" x="139.06494140625" class="er attributeBoxOdd"/><text style="dominant-baseline: middle; font-size: 10.2px;" transform="translate(144.06494140625,34.5)" y="0" x="0" id="text-entity-habits-10f05ac3-357c-4a3e-bd56-684adee88a67-attr-1-comment" class="er entityLabel"/><rect height="21" width="54.113128662109375" y="45" x="0" class="er attributeBoxEven"/><text style="dominant-baseline: middle; font-size: 10.2px;" transform="translate(5,55.5)" y="0" x="0" id="text-entity-habits-10f05ac3-357c-4a3e-bd56-684adee88a67-attr-2-type" class="er entityLabel">String</text><rect height="21" width="61.156829833984375" y="45" x="54.113128662109375" class="er attributeBoxEven"/><text style="dominant-baseline: middle; font-size: 10.2px;" transform="translate(59.113128662109375,55.5)" y="0" x="0" id="text-entity-habits-10f05ac3-357c-4a3e-bd56-684adee88a67-attr-2-name" class="er entityLabel">title</text><rect height="21" width="23.79498291015625" y="45" x="115.26995849609375" class="er attributeBoxEven"/><text style="dominant-baseline: middle; font-size: 10.2px;" transform="translate(120.26995849609375,55.5)" y="0" x="0" id="text-entity-habits-10f05ac3-357c-4a3e-bd56-684adee88a67-attr-2-key" class="er entityLabel"/><rect height="21" width="45.453216552734375" y="45" x="139.06494140625" class="er attributeBoxEven"/><text style="dominant-baseline: middle; font-size: 10.2px;" transform="translate(144.06494140625,55.5)" y="0" x="0" id="text-entity-habits-10f05ac3-357c-4a3e-bd56-684adee88a67-attr-2-comment" class="er entityLabel"/><rect height="21" width="54.113128662109375" y="66" x="0" class="er attributeBoxOdd"/><text style="dominant-baseline: middle; font-size: 10.2px;" transform="translate(5,76.5)" y="0" x="0" id="text-entity-habits-10f05ac3-357c-4a3e-bd56-684adee88a67-attr-3-type" class="er entityLabel">DateTime</text><rect height="21" width="61.156829833984375" y="66" x="54.113128662109375" class="er attributeBoxOdd"/><text style="dominant-baseline: middle; font-size: 10.2px;" transform="translate(59.113128662109375,76.5)" y="0" x="0" id="text-entity-habits-10f05ac3-357c-4a3e-bd56-684adee88a67-attr-3-name" class="er entityLabel">created_at</text><rect height="21" width="23.79498291015625" y="66" x="115.26995849609375" class="er attributeBoxOdd"/><text style="dominant-baseline: middle; font-size: 10.2px;" transform="translate(120.26995849609375,76.5)" y="0" x="0" id="text-entity-habits-10f05ac3-357c-4a3e-bd56-684adee88a67-attr-3-key" class="er entityLabel"/><rect height="21" width="45.453216552734375" y="66" x="139.06494140625" class="er attributeBoxOdd"/><text style="dominant-baseline: middle; font-size: 10.2px;" transform="translate(144.06494140625,76.5)" y="0" x="0" id="text-entity-habits-10f05ac3-357c-4a3e-bd56-684adee88a67-attr-3-comment" class="er entityLabel"/><rect height="21" width="54.113128662109375" y="87" x="0" class="er attributeBoxEven"/><text style="dominant-baseline: middle; font-size: 10.2px;" transform="translate(5,97.5)" y="0" x="0" id="text-entity-habits-10f05ac3-357c-4a3e-bd56-684adee88a67-attr-4-type" class="er entityLabel">DateTime</text><rect height="21" width="61.156829833984375" y="87" x="54.113128662109375" class="er attributeBoxEven"/><text style="dominant-baseline: middle; font-size: 10.2px;" transform="translate(59.113128662109375,97.5)" y="0" x="0" id="text-entity-habits-10f05ac3-357c-4a3e-bd56-684adee88a67-attr-4-name" class="er entityLabel">updated_at</text><rect height="21" width="23.79498291015625" y="87" x="115.26995849609375" class="er attributeBoxEven"/><text style="dominant-baseline: middle; font-size: 10.2px;" transform="translate(120.26995849609375,97.5)" y="0" x="0" id="text-entity-habits-10f05ac3-357c-4a3e-bd56-684adee88a67-attr-4-key" class="er entityLabel"/><rect height="21" width="45.453216552734375" y="87" x="139.06494140625" class="er attributeBoxEven"/><text style="dominant-baseline: middle; font-size: 10.2px;" transform="translate(144.06494140625,97.5)" y="0" x="0" id="text-entity-habits-10f05ac3-357c-4a3e-bd56-684adee88a67-attr-4-comment" class="er entityLabel">nullable</text></g><g transform="translate(20,20 )" id="entity-habitweekdays-d7b0fdf6-a164-469e-b9ef-7ac3c0d6b19b"><rect height="87" width="122.734375" y="0" x="0" class="er entityBox"/><text style="dominant-baseline: middle; text-anchor: middle; font-size: 12px;" transform="translate(61.3671875,12)" y="0" x="0" id="text-entity-habitweekdays-d7b0fdf6-a164-469e-b9ef-7ac3c0d6b19b" class="er entityLabel">habit_week_days</text><rect height="21" width="38.351216634114586" y="24" x="0" class="er attributeBoxOdd"/><text style="dominant-baseline: middle; font-size: 10.2px;" transform="translate(5,34.5)" y="0" x="0" id="text-entity-habitweekdays-d7b0fdf6-a164-469e-b9ef-7ac3c0d6b19b-attr-1-type" class="er entityLabel">String</text><rect height="21" width="59.18401082356771" y="24" x="38.351216634114586" class="er attributeBoxOdd"/><text style="dominant-baseline: middle; font-size: 10.2px;" transform="translate(43.351216634114586,34.5)" y="0" x="0" id="text-entity-habitweekdays-d7b0fdf6-a164-469e-b9ef-7ac3c0d6b19b-attr-1-name" class="er entityLabel">id</text><rect height="21" width="25.199147542317707" y="24" x="97.5352274576823" class="er attributeBoxOdd"/><text style="dominant-baseline: middle; font-size: 10.2px;" transform="translate(102.5352274576823,34.5)" y="0" x="0" id="text-entity-habitweekdays-d7b0fdf6-a164-469e-b9ef-7ac3c0d6b19b-attr-1-key" class="er entityLabel">PK</text><rect height="21" width="38.351216634114586" y="45" x="0" class="er attributeBoxEven"/><text style="dominant-baseline: middle; font-size: 10.2px;" transform="translate(5,55.5)" y="0" x="0" id="text-entity-habitweekdays-d7b0fdf6-a164-469e-b9ef-7ac3c0d6b19b-attr-2-type" class="er entityLabel">Int</text><rect height="21" width="59.18401082356771" y="45" x="38.351216634114586" class="er attributeBoxEven"/><text style="dominant-baseline: middle; font-size: 10.2px;" transform="translate(43.351216634114586,55.5)" y="0" x="0" id="text-entity-habitweekdays-d7b0fdf6-a164-469e-b9ef-7ac3c0d6b19b-attr-2-name" class="er entityLabel">week_day</text><rect height="21" width="25.199147542317707" y="45" x="97.5352274576823" class="er attributeBoxEven"/><text style="dominant-baseline: middle; font-size: 10.2px;" transform="translate(102.5352274576823,55.5)" y="0" x="0" id="text-entity-habitweekdays-d7b0fdf6-a164-469e-b9ef-7ac3c0d6b19b-attr-2-key" class="er entityLabel"/><rect height="21" width="38.351216634114586" y="66" x="0" class="er attributeBoxOdd"/><text style="dominant-baseline: middle; font-size: 10.2px;" transform="translate(5,76.5)" y="0" x="0" id="text-entity-habitweekdays-d7b0fdf6-a164-469e-b9ef-7ac3c0d6b19b-attr-3-type" class="er entityLabel">String</text><rect height="21" width="59.18401082356771" y="66" x="38.351216634114586" class="er attributeBoxOdd"/><text style="dominant-baseline: middle; font-size: 10.2px;" transform="translate(43.351216634114586,76.5)" y="0" x="0" id="text-entity-habitweekdays-d7b0fdf6-a164-469e-b9ef-7ac3c0d6b19b-attr-3-name" class="er entityLabel">habit_id</text><rect height="21" width="25.199147542317707" y="66" x="97.5352274576823" class="er attributeBoxOdd"/><text style="dominant-baseline: middle; font-size: 10.2px;" transform="translate(102.5352274576823,76.5)" y="0" x="0" id="text-entity-habitweekdays-d7b0fdf6-a164-469e-b9ef-7ac3c0d6b19b-attr-3-key" class="er entityLabel"/></g><g transform="translate(356.1627883911133,228 )" id="entity-days-e809ca2f-cd05-458f-ab27-3249661cbf3b"><rect height="66" width="108.07012939453125" y="0" x="0" class="er entityBox"/><text style="dominant-baseline: middle; text-anchor: middle; font-size: 12px;" transform="translate(54.035064697265625,12)" y="0" x="0" id="text-entity-days-e809ca2f-cd05-458f-ab27-3249661cbf3b" class="er entityLabel">days</text><rect height="21" width="54.113128662109375" y="24" x="0" class="er attributeBoxOdd"/><text style="dominant-baseline: middle; font-size: 10.2px;" transform="translate(5,34.5)" y="0" x="0" id="text-entity-days-e809ca2f-cd05-458f-ab27-3249661cbf3b-attr-1-type" class="er entityLabel">String</text><rect height="21" width="30.162017822265625" y="24" x="54.113128662109375" class="er attributeBoxOdd"/><text style="dominant-baseline: middle; font-size: 10.2px;" transform="translate(59.113128662109375,34.5)" y="0" x="0" id="text-entity-days-e809ca2f-cd05-458f-ab27-3249661cbf3b-attr-1-name" class="er entityLabel">id</text><rect height="21" width="23.79498291015625" y="24" x="84.275146484375" class="er attributeBoxOdd"/><text style="dominant-baseline: middle; font-size: 10.2px;" transform="translate(89.275146484375,34.5)" y="0" x="0" id="text-entity-days-e809ca2f-cd05-458f-ab27-3249661cbf3b-attr-1-key" class="er entityLabel">PK</text><rect height="21" width="54.113128662109375" y="45" x="0" class="er attributeBoxEven"/><text style="dominant-baseline: middle; font-size: 10.2px;" transform="translate(5,55.5)" y="0" x="0" id="text-entity-days-e809ca2f-cd05-458f-ab27-3249661cbf3b-attr-2-type" class="er entityLabel">DateTime</text><rect height="21" width="30.162017822265625" y="45" x="54.113128662109375" class="er attributeBoxEven"/><text style="dominant-baseline: middle; font-size: 10.2px;" transform="translate(59.113128662109375,55.5)" y="0" x="0" id="text-entity-days-e809ca2f-cd05-458f-ab27-3249661cbf3b-attr-2-name" class="er entityLabel">date</text><rect height="21" width="23.79498291015625" y="45" x="84.275146484375" class="er attributeBoxEven"/><text style="dominant-baseline: middle; font-size: 10.2px;" transform="translate(89.275146484375,55.5)" y="0" x="0" id="text-entity-days-e809ca2f-cd05-458f-ab27-3249661cbf3b-attr-2-key" class="er entityLabel"/></g><g transform="translate(310.1978530883789,30.5 )" id="entity-dayhabits-5e9f3277-a0d7-4c24-9e3c-24486142bc79"><rect height="66" width="100" y="0" x="0" class="er entityBox"/><text style="dominant-baseline: middle; text-anchor: middle; font-size: 12px;" transform="translate(50,12)" y="0" x="0" id="text-entity-dayhabits-5e9f3277-a0d7-4c24-9e3c-24486142bc79" class="er entityLabel">day_habits</text><rect height="21" width="45.46337890625" y="24" x="0" class="er attributeBoxOdd"/><text style="dominant-baseline: middle; font-size: 10.2px;" transform="translate(5,34.5)" y="0" x="0" id="text-entity-dayhabits-5e9f3277-a0d7-4c24-9e3c-24486142bc79-attr-1-type" class="er entityLabel">String</text><rect height="21" width="54.53662109375" y="24" x="45.46337890625" class="er attributeBoxOdd"/><text style="dominant-baseline: middle; font-size: 10.2px;" transform="translate(50.46337890625,34.5)" y="0" x="0" id="text-entity-dayhabits-5e9f3277-a0d7-4c24-9e3c-24486142bc79-attr-1-name" class="er entityLabel">day_id</text><rect height="21" width="45.46337890625" y="45" x="0" class="er attributeBoxEven"/><text style="dominant-baseline: middle; font-size: 10.2px;" transform="translate(5,55.5)" y="0" x="0" id="text-entity-dayhabits-5e9f3277-a0d7-4c24-9e3c-24486142bc79-attr-2-type" class="er entityLabel">String</text><rect height="21" width="54.53662109375" y="45" x="45.46337890625" class="er attributeBoxEven"/><text style="dominant-baseline: middle; font-size: 10.2px;" transform="translate(50.46337890625,55.5)" y="0" x="0" id="text-entity-dayhabits-5e9f3277-a0d7-4c24-9e3c-24486142bc79-attr-2-name" class="er entityLabel">habit_id</text></g><rect height="14" width="23.34765625" y="358" x="119.693359375" class="er relationshipLabelBox"/><text style="text-anchor: middle; dominant-baseline: middle; font-size: 12px;" y="365" x="131.3671875" id="rel1" class="er relationshipLabel">user</text><rect height="14" width="26.6875" y="151.78530883789062" x="72.4742202758789" class="er relationshipLabelBox"/><text style="text-anchor: middle; dominant-baseline: middle; font-size: 12px;" y="158.78530883789062" x="85.8179702758789" id="rel2" class="er relationshipLabel">habit</text><rect height="14" width="19.359375" y="152.53208923339844" x="395.3157043457031" class="er relationshipLabelBox"/><text style="text-anchor: middle; dominant-baseline: middle; font-size: 12px;" y="159.53208923339844" x="404.9953918457031" id="rel3" class="er relationshipLabel">day</text><rect height="14" width="26.6875" y="142.0975341796875" x="235.88009643554688" class="er relationshipLabelBox"/><text style="text-anchor: middle; dominant-baseline: middle; font-size: 12px;" y="149.0975341796875" x="249.22384643554688" id="rel4" class="er relationshipLabel">habit</text></svg>